<svg xmlns="http://www.w3.org/2000/svg" height="800" width="1200" version="1.0" viewBox="-11.914095 -6.0707 103.25549 36.4242"><g fill="red"><path d="M16.0985.0218C12.678.2618 8.5566 1.754 3.057 4.7474 1.3953 5.6507.7038 6.061.5367 6.2354.249 6.5408.0169 7.8761.003 9.268c-.0093.755 0 .8727.0742.9775.0696.1003.116.1178.2878.1178.2274 0 .2552-.0175 1.4295-.829.362-.2532 1.1927-.7899 1.8425-1.2 4.799-3.0152 9.3845-4.957 12.7725-5.4108 1.2438-.1658 2.5016-.0044 3.4948.4538.8169.3796 1.2856.8334 1.513 1.4705.3481.9818-.2042 2.1512-1.694 3.5912-1.9029 1.8326-4.5901 3.0893-9.1942 4.3024-.3341.0872-.6404.1658-.6822.1789-.0464.013-.0835 0-.0835-.0262 0-.0524.9746-1.5185 2.4087-3.6217C13.3 7.6186 13.3835 7.4441 13.3835 6.807c0-.5105-.1114-.7767-.441-1.0603-.2506-.2182-.3944-.2705-.7193-.2705-.311 0-.4456.0785-.6916.384-.529.6763-2.2556 3.1984-4.3023 6.2747l-1.0164 1.5315-.325.0306c-.1763.013-.9282.0567-1.6707.0916-1.541.0786-1.7869.1047-2.149.2618-.4408.1877-.6125.3971-.6125.7287 0 .1048.0324.2313.0696.288.1067.1397.427.3011.7194.3535.4455.0829 1.3459.1396 2.0281.1309.3667-.0088.6684.0043.6684.0218.0046.0174-.7148 1.1345-1.5966 2.4828-1.8008 2.7578-1.8518 2.8407-2.1442 3.4952-.3713.829-.4966 1.4574-.3945 1.9243.0743.3316.1903.5454.3713.6938.13.1003.1856.1134.5012.1134.4038 0 .6962-.1047 1.2253-.4407.5477-.349 1.0071-.8945 1.6847-1.9854.3528-.5672.5199-.9774.5756-1.4007.0278-.2094.1113-.3883.492-1.0385.6497-1.1083 1.4712-2.4697 2.1163-3.4951l.5523-.877.9654-.2226c1.7404-.4015 3.9032-1.043 5.3605-1.5883 1.6058-.5978 3.713-1.6538 4.9939-2.496 1.6987-1.1257 2.9796-2.365 3.6155-3.5082.4687-.8465.6497-1.6014.5987-2.5309-.065-1.1606-.4688-2.0159-1.3784-2.906C21.4405.7723 20.322.2618 18.7579.0916c-.7425-.083-2.0142-.1178-2.6594-.0698z"/><path d="M39.6478 5.8863c-.529.1746-.8075.4015-1.3691 1.0953-.7658.9512-2.353 3.1199-2.961 4.045l-.2228.3403h-.311c-.5755 0-1.6523.0916-2.0839.1745-.9793.1876-1.527.6153-1.8611 1.4618-.0557.1353-.0975.3229-.0975.4189v.1789l.1764-.0175c.0928-.013.4456-.0741.775-.1396.5756-.109 2.0004-.2182 2.0468-.1527.0279.048-1.6058 2.2297-2.1535 2.8755-1.0164 1.1913-1.9307 2.16-2.9518 3.1243-1.216 1.1432-2.0281 1.7672-3.0446 2.3301-.1856.1047-.218.1135-.1763.0436.0325-.0436.065-.0785.0696-.0698.0278.0262.9282-.8029 1.1974-1.1083.7148-.8073 1.202-1.68 1.4434-2.5745.0604-.2312.0882-.4843.0882-.8509 0-.4843-.0093-.541-.1253-.7636-.0696-.1309-.311-.4581-.5291-.72-.478-.5672-.6962-.9643-.673-1.2217.051-.528.0372-.6022-.116-.6851-.1021-.0567-.2831-.0873-.5801-.1047-.5477-.035-.854.061-1.179.3578-.2412.2182-.515.7112-.5615 1.0167-.0557.349-.5476 1.0254-1.137 1.5578-.7334.6588-1.5502 1.0428-2.4413 1.1476-.376.0436-.8911 0-1.1418-.1004l-.1578-.0611.0604-.384c.1439-.9032.1206-1.8632-.051-2.3345-.1625-.445-.8076-.9992-1.3367-1.152-.3388-.1003-1.1557-.1352-1.5966-.0654-.7333.1091-1.4063.3884-2.3577.9818-2.121 1.3134-3.6062 3.1068-4.0889 4.922-.1578.5935-.2042 1.6756-.0928 2.1687.1114.5105.427 1.0647.84 1.4749.427.4232.738.6327 1.1882.781.3156.1091.3991.1178 1.086.1178.854.0044 1.1139-.0436 1.7358-.3272.724-.323 1.4434-.8727 2.1628-1.6625.9375-1.0254 1.3692-1.6494 1.7636-2.544.1207-.2748.246-.5017.2739-.5017.0278 0 .1253.0218.2135.0436.3434.096 1.0535.1353 1.5455.0873.8075-.0742 1.4759-.3011 2.1303-.7113.5198-.3272.854-.6152 1.2531-1.0865l.3342-.3927.0928.1004c.1624.1876.3991.7243.4548 1.0428.051.2837.0464.3447-.0464.6851-.0557.205-.2042.576-.3249.816-.6312 1.2436-1.4944 2.0595-2.6547 2.5177-.687.275-1.1046.2007-1.5409-.2749-.4177-.4538-.8261-.6458-1.267-.5847-.3017.0436-.622.2705-.7751.5498-.26.4582-.13.877.427 1.3658.7426.6589 1.7219.9905 2.924.9905.543 0 .9978-.061 1.7868-.24 1.7265-.3883 2.664-.864 4.293-2.1817.6637-.5324 1.6662-1.4487 1.6291-1.488-.014-.0175-.0046-.0175.0232-.0044.0325.0175.0046.192-.0882.5193-.1763.6545-.2228 1.4792-.1067 1.968.1253.528.4873.9817.97 1.2173.2692.131.9932.1615 1.4248.0568 1.1696-.2837 2.7894-1.4182 4.4602-3.1243.2506-.2574.4641-.4538.478-.4407.014.013.0279.2269.0279.4756 0 .9338.2924 1.6232.97 2.2996.2784.2749.6683.541.9514.6545.4641.1833 1.3738.253 2.0143.157 1.1324-.1744 2.3484-1.0035 3.5505-2.4217.71-.8377 1.0303-1.3395 1.4248-2.234.181-.4059.246-.5106.311-.5019.0464.0044.3713.035.724.0655.3574.0262.6451.0654.6405.0873 0 .0174-.0836.2749-.1857.5672-.2645.781-.3805 1.3614-.4084 2.016-.0418.9774.13 1.466.6823 1.9592.3898.3447.7054.4581 1.3923.493 1.2578.0655 2.5898-.5323 3.9868-1.7977 1.0814-.9774 1.7497-1.9854 2.367-3.5781.3341-.8552.3202-.8203.413-.781.0418.0218.362.0392.7055.0436.3434.0043.6405.013.6637.013.0185.0044-.0371.1353-.1253.2968-.232.4407-.4317.9992-.543 1.5447-.0836.4101-.0929.5978-.079 1.1694.0279.8247.1393 1.2087.5013 1.7192.2553.3578.8122.8814 1.1185 1.0472.4641.2531.7473.3098 1.5502.3098.8725.0044 1.1231-.048 1.7775-.349.6684-.3098 1.3506-.8247 1.9679-1.4924 1.086-1.1694 1.564-1.8632 1.9864-2.8886.0836-.205.1717-.3883.1903-.4102.0186-.0218.3249-.0436.6776-.048.4038-.0043.7333-.0349.8958-.0785.1392-.035.2692-.0567.2877-.048.0279.0175-.9514 1.584-1.5733 2.5047-.5755.8552-.933 1.645-.9747 2.1642-.0232.2968-.0232.3142.116.4582l.1393.1484h.4362c.5616 0 .7473-.083 1.2114-.5411.4363-.432.8725-1.0385 1.4248-1.9898 1.0072-1.7279 1.5409-2.509 2.2464-3.277.5198-.5672.8725-.864 1.4526-1.226.8958-.5543 1.8147-.8946 2.4506-.9033.3202-.0044.4084.013.6358.1178.7473.3447.6312.9032-.464 2.2646-.2971.3666-.6916.8596-.882 1.0953-.7936.9949-1.513 2.1686-1.6568 2.714-.0836.3099-.0882.6502-.014.9295.0697.2705.4781.6633.7751.7462.9283.2574 2.07-.1266 3.699-1.2436.7148-.4888 1.7544-1.309 2.4135-1.9069.5987-.541.7611-.7854.7611-1.1432 0-.275-.0928-.371-.3434-.371-.2228 0-.3017.0437-.7101.3797-.7797.637-2.3763 1.6843-3.0586 1.9985-.2042.096-.4502.1745-.5801.1876-.1903.0175-.2367.0044-.3388-.0916l-.1207-.1135.0882-.2225c.167-.4145.4363-.781 1.5548-2.1381 1.991-2.4087 2.548-3.3774 2.4737-4.285-.0325-.3447-.0742-.432-.3249-.6807-.297-.2836-.5755-.3665-1.3598-.3927-1.1882-.035-2.135.192-3.5366.8465-.738.3404-.9329.4015-.7843.2444.1067-.1178.1717-.3535.1717-.6022 0-.4232-.26-.5803-.9607-.5847-.6498 0-1.1093.157-1.4388.493-.1021.1048-.4316.576-.7287 1.0473-.464.733-.5801.8902-.8447 1.1083-.8214.6851-1.6615 1.056-2.3762 1.0604-.4085 0-.4224-.0175-.3528-.467.0743-.4668.0836-1.6013.014-1.9548-.0743-.384-.2275-.624-.6127-.9687-.3713-.3316-.5987-.4407-1.137-.5367-.362-.0698-1.2253-.0349-1.5966.0611-.9561.2444-2.2324.9513-3.2396 1.7934-.8725.7287-1.4851 1.0953-1.9028 1.1433-.2785.0305-.8169-.0786-1.1743-.24-.1902-.083-.3202-.1833-.4409-.336-.1717-.2095-.1856-.2182-.3945-.2138-.1717 0-.2692.0349-.4827.1745-.5987.3883-.891.7636-.8957 1.152 0 .157-.065.3141-.297.7418-.8354 1.5446-1.694 2.5788-2.6316 3.1853-.9514.6109-1.4712.6545-1.6662.1396-.1206-.3316.0093-.7156.752-2.2384.3712-.7593.4408-.8684.5569-.9076.4734-.1571 1.7079-.9775 2.6361-1.7498.8122-.6807 3.5412-3.1548 4.0379-3.6697 1.137-1.165 1.8147-2.0552 2.2973-3.0152.4224-.8421.5987-1.5272.6034-2.3475 0-.5193-.0047-.5542-.1253-.7506-.1671-.2661-.5013-.5367-.7658-.6196-.3017-.096-.8911-.0873-1.3413.0175-.478.1134-1.2903.493-1.7544.8247-1.3691.973-2.9146 2.714-4.8732 5.5023-1.3042 1.8502-2.3345 3.469-3.0446 4.765-.3063.5629-.362.6414-.4827.6632-.3342.0655-1.0907-.0043-1.397-.1221l-.1439-.0568.0604-.3883c.0974-.5847.0928-1.7629-.0047-2.112-.1392-.5061-.5616-.9643-1.1185-1.2217-.7658-.3535-2.0421-.275-3.105.192-1.2577.5454-2.961 1.8675-3.8335 2.9715-.8494 1.0778-2.8683 3.1374-3.467 3.5388-.5059.3447-1.4063.672-1.8333.672-.2506 0-.478-.1178-.5662-.2924-.2181-.432.0418-1.1738 1.0443-3.002.529-.9688 1.1417-1.8022 2.6454-3.6261l.6916-.8335 1.1.0219c1.4526.0218 1.824-.0524 2.3112-.4757.26-.2269.5755-.816.6127-1.1388.0371-.336.0093-.3491-.6637-.2968-.956.0742-2.0607.0437-2.0607-.0523 0-.0437 1.838-2.544 2.5944-3.5257.2646-.3491.5477-.7156.6266-.8204.1253-.1658.1439-.2269.1439-.4581 0-.3404-.1532-.6284-.3945-.7375-.26-.1221-1.0907-.109-1.4899.0262zm18.8896 2.1163c.1068.0655.0325.3273-.232.8247-.673 1.2698-2.367 3.3032-4.6227 5.5373-.594.5934-1.8564 1.7149-1.9678 1.7498-.0928.0349-.0279-.1048.3156-.6807.7472-1.2567 1.5733-2.4741 2.5851-3.805 1.2856-1.6887 2.6965-3.1112 3.518-3.5344.2692-.1397.3063-.1484.4038-.0917zM18.28 15.7042c.1856.1134.2692.3185.2645.6327 0 .1527-.0232.2967-.0464.3185-.0789.0742-.97-.9294-.9096-1.021.0464-.0655.5569-.0131.6915.0698zm26.7795 0c.181.1134.2739.3229.2785.624 0 .384-.051.4058-.3341.1309-.4131-.4015-.7148-.7854-.6498-.8247.0835-.0567.5755-.0087.7054.0698zm19.3677-.0175c.246.1048.3341.2793.3341.6677 0 .3098-.0185.3534-.1439.288-.0974-.048-.9236-.9077-.9236-.96 0-.1047.4874-.1004.7334.0043zm-48.3378.7593c.3527.4974 1.1231 1.2916 1.6476 1.693l.1531.1178-.116.2139c-.3806.7068-1.3691 1.8283-2.0235 2.2952-.6405.4625-1.3877.768-1.875.768-.325 0-.7287-.1397-.9562-.3317-.1949-.1702-.4084-.5716-.4594-.8901-.1857-1.104 1.0767-2.736 2.9842-3.8574.2275-.1353.427-.2443.4456-.2443.0186 0 .1067.1047.1996.2356zm26.8306.1178c.2877.3796 1.0071 1.0647 1.4527 1.3832.1856.131.3388.2488.3388.2618 0 .0699-.5338.8815-.8169 1.2306-.4595.5716-1.3413 1.3614-1.8147 1.6275-.4873.275-1.0675.467-1.4155.467-.3342 0-.738-.1397-.9654-.3317-.0975-.0829-.232-.2705-.3017-.4189-.4316-.8989.0186-2.0116 1.2763-3.1766.2692-.2531.659-.576.868-.7156.4826-.3317.9932-.6327 1.0813-.6327.0372 0 .1718.1352.297.3054zm19.4325.048c.4038.493.9515 1.0254 1.3924 1.3483.1996.1527.3667.288.3667.3011 0 .0611-.5895.9513-.8123 1.2218-.3341.4145-1.0628 1.1083-1.4155 1.3483-.6915.4756-1.346.72-1.8565.6938-.4502-.0218-.8679-.2269-1.0674-.5149-.4085-.5978-.39-1.2698.065-2.077.4965-.877 1.3134-1.6625 2.483-2.3825.2691-.1614.5012-.2967.5151-.2967.0186 0 .1671.1614.3295.3578z"/><path d="M66.1536 9.316c-.116.0218-.3574.1135-.543.1964-.2692.1265-.4178.24-.7983.6196-.5477.541-1.1789 1.2916-1.4527 1.7236-.2553.4058-.2692.6196-.0418.7636.1253.0785.2181.1004.4688.1004.2738 0 .362-.0219.6776-.1702 1.1046-.5193 3.0632-1.9461 3.3184-2.413.0464-.0873.0882-.24.0882-.3317 0-.205-.167-.3709-.441-.4407-.2691-.0654-1.0349-.096-1.2762-.048z"/></g></svg>